<svg width="173px" height="22px" viewBox="0 0 173 22" version="1.1" xmlns="http://www.w3.org/2000/svg" xmlns:xlink="http://www.w3.org/1999/xlink">
    <defs>
        <polygon id="path-1" points="0 21.9648411 173.199009 21.9648411 173.199009 0 0 0"></polygon>
    </defs>
    <g id="Forecasts" stroke="none" stroke-width="1" fill="none" fill-rule="evenodd">
        <g id="Page-1">
            <path d="M105.127473,5.88763178 C105.994314,6.5180243 106.585436,7.36163178 106.900837,8.41763178 L103.874295,9.50529533 C103.590351,8.07097757 102.825903,7.35361308 101.580744,7.35361308 C100.650576,7.35361308 99.9373234,7.67271589 99.4409869,8.3111271 C98.9442393,8.94953832 98.696071,9.88361308 98.696071,11.1131458 C98.696071,12.3426785 98.9479402,13.2687346 99.4525009,13.891314 C99.9570617,14.5143047 100.658594,14.8253888 101.557099,14.8253888 C102.943921,14.8253888 103.763884,14.1242673 104.016164,12.7207907 L106.947921,13.6667907 C106.695847,14.7544542 106.108632,15.6215009 105.186482,16.2675196 C104.264333,16.9141551 103.07037,17.2369589 101.604183,17.2369589 C99.6494729,17.2369589 98.1362019,16.6972393 97.0643701,15.6173888 C95.9923327,14.5377439 95.4567252,13.0281738 95.4567252,11.0895009 C95.4567252,9.15041682 95.9886318,7.64125794 97.0528561,6.56140748 C98.1166692,5.48176262 99.5945757,4.94163178 101.486164,4.94163178 C103.046725,4.94163178 104.260221,5.25744486 105.127473,5.88763178 L105.127473,5.88763178 Z" id="Fill-1" fill="#111111"></path>
            <path d="M115.119297,14.5297869 C115.694587,14.1911514 115.982232,13.7297682 115.982232,13.1464598 L115.982232,11.9169271 L113.452437,12.4846093 C112.916213,12.6108523 112.518363,12.7800673 112.258475,12.9926654 C111.998176,13.2056748 111.868026,13.5011327 111.868026,13.8794505 C111.868026,14.2579738 111.986456,14.5456187 112.222699,14.7425907 C112.459148,14.9397682 112.790381,15.0382542 113.215783,15.0382542 C113.909297,15.0382542 114.543802,14.8688336 115.119297,14.5297869 M120.876923,14.9436748 L120.64068,16.9061981 C120.19883,17.1266093 119.686456,17.2370206 119.103559,17.2370206 C117.590288,17.2370206 116.683559,16.6458991 116.384194,15.4636561 C116.037335,16.0471701 115.501316,16.4886093 114.77655,16.7877682 C114.051372,17.0871327 113.192344,17.2370206 112.19926,17.2370206 C111.048475,17.2370206 110.149764,16.9769271 109.503746,16.4567402 C108.85711,15.9367589 108.534307,15.1881421 108.534307,14.2104785 C108.534307,12.2876374 110.071017,11.0420673 113.145054,10.4745907 L115.982232,9.93096449 L115.982232,9.36328224 C115.982232,8.73309533 115.805204,8.23244112 115.450325,7.86193645 C115.095652,7.49184299 114.602811,7.30617944 113.972624,7.30617944 C113.247447,7.30617944 112.656325,7.46408598 112.19926,7.77907664 C111.741783,8.09468411 111.426793,8.60664673 111.25326,9.31619813 L108.67597,8.22853458 C108.92825,7.20378692 109.495521,6.40006729 110.378606,5.81655327 C111.261073,5.23365607 112.412064,4.94169346 113.83055,4.94169346 C115.517353,4.94169346 116.833652,5.30808598 117.779447,6.04128224 C118.725036,6.7742729 119.198138,7.85823551 119.198138,9.29234766 L119.198138,14.1397495 C119.198138,14.4551514 119.269073,14.6833757 119.410942,14.8252449 C119.552606,14.967114 119.773428,15.0382542 120.072998,15.0382542 C120.404026,15.0382542 120.671933,15.0065907 120.876923,14.9436748" id="Fill-3" fill="#111111"></path>
            <mask id="mask-2" fill="white">
                <use xlink:href="#path-1"></use>
            </mask>
            <g id="Clip-6"></g>
            <path d="M136.903121,17.0006542 L140.142467,17.0006542 L140.142467,5.1782243 L136.903121,5.1782243 L136.903121,17.0006542 Z M136.524804,1.74971963 C136.524804,0.583308411 137.194673,0 138.534411,0 C139.87415,0 140.54443,0.583308411 140.54443,1.74971963 C140.54443,2.90050467 139.87415,3.47579439 138.534411,3.47579439 C137.194673,3.47579439 136.524804,2.90050467 136.524804,1.74971963 L136.524804,1.74971963 Z" id="Fill-5" fill="#111111" mask="url(#mask-2)"></path>
            <path d="M151.229521,16.2676019 C150.851204,16.567172 150.374194,16.8036206 149.79911,16.9769477 C149.223204,17.1502748 148.620568,17.2370411 147.990176,17.2370411 C145.357372,17.2370411 144.041484,16.0471907 144.041484,13.6668729 L144.041484,7.58993832 L141.889596,7.58993832 L141.889596,5.17816262 L144.041484,5.17816262 L144.041484,2.45900374 L147.28083,1.56049907 L147.28083,5.17816262 L151.111297,5.17816262 L151.111297,7.58993832 L147.28083,7.58993832 L147.28083,13.1464804 C147.28083,14.2341439 147.824456,14.7779757 148.912325,14.7779757 C149.605839,14.7779757 150.212793,14.5575645 150.732979,14.1159196 L151.229521,16.2676019 Z" id="Fill-7" fill="#111111" mask="url(#mask-2)"></path>
            <path d="M159.02735,14.5297869 C159.602434,14.1911514 159.890284,13.7297682 159.890284,13.1464598 L159.890284,11.9169271 L157.360284,12.4846093 C156.824265,12.6108523 156.426415,12.7800673 156.166116,12.9926654 C155.906022,13.2056748 155.776079,13.5011327 155.776079,13.8794505 C155.776079,14.2579738 155.894303,14.5456187 156.130751,14.7425907 C156.3672,14.9397682 156.698228,15.0382542 157.123836,15.0382542 C157.81735,15.0382542 158.451443,14.8688336 159.02735,14.5297869 M164.78477,14.9436748 L164.548321,16.9061981 C164.106882,17.1266093 163.594508,17.2370206 163.011406,17.2370206 C161.498135,17.2370206 160.591406,16.6458991 160.292247,15.4636561 C159.945387,16.0471701 159.409163,16.4886093 158.684396,16.7877682 C157.959219,17.0871327 157.100191,17.2370206 156.107107,17.2370206 C154.956116,17.2370206 154.057817,16.9769271 153.411798,16.4567402 C152.765163,15.9367589 152.442153,15.1881421 152.442153,14.2104785 C152.442153,12.2876374 153.979069,11.0420673 157.052695,10.4745907 L159.890284,9.93096449 L159.890284,9.36328224 C159.890284,8.73309533 159.712845,8.23244112 159.358172,7.86193645 C159.003705,7.49184299 158.510658,7.30617944 157.880471,7.30617944 C157.155293,7.30617944 156.564172,7.46408598 156.107107,7.77907664 C155.64963,8.09468411 155.334434,8.60664673 155.161312,9.31619813 L152.584022,8.22853458 C152.835892,7.20378692 153.403368,6.40006729 154.286247,5.81655327 C155.16892,5.23365607 156.31991,4.94169346 157.738602,4.94169346 C159.4252,4.94169346 160.741499,5.30808598 161.687499,6.04128224 C162.633088,6.7742729 163.105985,7.85823551 163.105985,9.29234766 L163.105985,14.1397495 C163.105985,14.4551514 163.17692,14.6833757 163.318789,14.8252449 C163.460658,14.967114 163.681275,15.0382542 163.980845,15.0382542 C164.311667,15.0382542 164.579574,15.0065907 164.78477,14.9436748" id="Fill-8" fill="#111111" mask="url(#mask-2)"></path>
            <path d="M171.473428,14.6952187 C171.27625,14.7346953 171.04412,14.7544336 170.776213,14.7544336 C170.334568,14.7544336 170.031297,14.644228 169.865989,14.4234056 C169.700064,14.2025832 169.617409,13.8086393 169.617409,13.2411626 L169.617409,0.00826542056 L166.378269,0.886003738 L166.378269,13.7140598 C166.378269,14.9435925 166.642064,15.8383963 167.170064,16.3976486 C167.698269,16.9573121 168.537559,17.2369383 169.688344,17.2369383 C170.082288,17.2369383 170.48425,17.1933495 170.894437,17.1069944 C171.304007,17.020228 171.635241,16.8983028 171.887521,16.7403963 L172.171054,14.4941346 C171.903148,14.588714 171.670606,14.6561533 171.473428,14.6952187" id="Fill-9" fill="#111111" mask="url(#mask-2)"></path>
            <path d="M130.556738,13.8085364 C130.068009,14.4391346 129.382514,14.7545364 128.499841,14.7545364 C127.711336,14.7545364 127.073131,14.4788168 126.584607,13.9267607 C126.095673,13.3753215 125.819748,12.6026486 125.757037,11.6095645 L125.757037,10.5691907 C125.819748,9.56068598 126.095673,8.78410654 126.584607,8.24027477 C127.073131,7.69623738 127.711336,7.4244243 128.499841,7.4244243 C129.382514,7.4244243 130.068009,7.73982617 130.556738,8.37021869 C131.045262,9.00081682 131.289729,9.90713458 131.289729,11.0893776 C131.289729,12.2716206 131.045262,13.1783495 130.556738,13.8085364 M133.181523,6.56148972 C132.283019,5.48184486 131.045262,4.94171402 129.46928,4.94171402 C128.538907,4.94171402 127.73128,5.17446168 127.045785,5.63934019 C126.359879,6.1044243 125.843393,6.73091028 125.496944,7.51900374 L125.584121,4.97255514 L122.517486,4.97255514 L122.517486,21.9647794 L125.757037,21.0870411 L125.757037,15.061714 C126.119318,15.7398075 126.616065,16.2715084 127.246458,16.6576393 C127.877056,17.0437701 128.61786,17.2370411 129.46928,17.2370411 C131.045262,17.2370411 132.283019,16.6932093 133.181523,15.6055458 C134.080028,14.5178822 134.529075,13.0046112 134.529075,11.0657327 C134.529075,9.14289159 134.080028,7.64134019 133.181523,6.56148972" id="Fill-10" fill="#111111" mask="url(#mask-2)"></path>
            <path d="M9.67078879,5.88763178 C10.5374243,6.5180243 11.1285458,7.36163178 11.4441533,8.41763178 L8.41740561,9.50529533 C8.13366729,8.07097757 7.36901308,7.35361308 6.12405981,7.35361308 C5.19368598,7.35361308 4.48063925,7.67271589 3.9840972,8.3111271 C3.48755514,8.94953832 3.23938692,9.88361308 3.23938692,11.1131458 C3.23938692,12.3426785 3.49125607,13.2687346 3.99581682,13.891314 C4.50037757,14.5143047 5.20191028,14.8253888 6.10041495,14.8253888 C7.48723738,14.8253888 8.30699439,14.1242673 8.55948037,12.7207907 L11.4912374,13.6667907 C11.238957,14.7544542 10.6519477,15.6215009 9.72979813,16.2675196 C8.8076486,16.9141551 7.61348037,17.2369589 6.14749907,17.2369589 C4.19278879,17.2369589 2.67951776,16.6972393 1.60768598,15.6173888 C0.535648598,14.5377439 4.11214955e-05,13.0281738 4.11214955e-05,11.0895009 C4.11214955e-05,9.15041682 0.531947664,7.64125794 1.59617196,6.56140748 C2.65998505,5.48176262 4.13789159,4.94163178 6.02948037,4.94163178 C7.59004112,4.94163178 8.80353645,5.25744486 9.67078879,5.88763178" id="Fill-11" fill="#111111" mask="url(#mask-2)"></path>
            <path d="M21.5849607,5.2019514 L21.1829981,8.03933458 C20.8201009,7.80268037 20.3235589,7.68445607 19.693372,7.68445607 C18.9209047,7.68445607 18.2547364,7.96469907 17.6954841,8.5239514 C17.135615,9.08361495 16.8559888,9.86800748 16.8559888,10.8767178 L16.8559888,17.0007364 L13.616643,17.0007364 L13.616643,5.17830654 L16.4303813,5.17830654 L16.643185,7.4952972 C17.2892037,5.7930729 18.511129,4.94165234 20.3081383,4.94165234 C20.8597832,4.94165234 21.2853907,5.0286243 21.5849607,5.2019514" id="Fill-12" fill="#111111" mask="url(#mask-2)"></path>
            <path d="M26.6094935,8.01558692 C26.1442037,8.47306355 25.8487458,9.15054019 25.722914,10.0490449 L31.2319607,10.0490449 C31.1055121,9.16657757 30.8063533,8.49239065 30.3334561,8.02751215 C29.8607645,7.56263364 29.2457925,7.32988598 28.489157,7.32988598 C27.7008579,7.32988598 27.0741664,7.5585215 26.6094935,8.01558692 M34.1166336,12.3189514 L25.7463533,12.3189514 C26.0773813,13.990129 27.0622411,14.8253065 28.7019607,14.8253065 C29.379643,14.8253065 29.9391009,14.6992692 30.3807458,14.4469888 C30.8217738,14.1951196 31.129157,13.8322224 31.3028953,13.3593252 L33.9511196,14.3287645 C33.5728019,15.2745589 32.9380916,15.9958299 32.0476056,16.492372 C31.156914,16.988914 30.0414935,17.2370822 28.7019607,17.2370822 C26.7472505,17.2370822 25.2339794,16.6973626 24.1621477,15.6175121 C23.0901103,14.5378673 22.5542972,13.0282972 22.5542972,11.0894187 C22.5542972,9.15054019 23.0744841,7.64138131 24.1148579,6.56153084 C25.1552318,5.48188598 26.6212131,4.94175514 28.5128019,4.94175514 C30.3410636,4.94175514 31.7480355,5.46996075 32.7333065,6.52596075 C33.718372,7.58237196 34.2112131,9.08782991 34.2112131,11.042129 C34.2112131,11.4835682 34.1793439,11.9091757 34.1166336,12.3189514" id="Fill-13" fill="#111111" mask="url(#mask-2)"></path>
            <path d="M43.8505234,17.0006542 L47.0898692,17.0006542 L47.0898692,5.1782243 L43.8505234,5.1782243 L43.8505234,17.0006542 Z M43.4724112,1.74971963 C43.4724112,0.583308411 44.1420748,0 45.4820187,0 C46.821757,0 47.4918318,0.583308411 47.4918318,1.74971963 C47.4918318,2.90050467 46.821757,3.47579439 45.4820187,3.47579439 C44.1420748,3.47579439 43.4724112,2.90050467 43.4724112,1.74971963 L43.4724112,1.74971963 Z" id="Fill-14" fill="#111111" mask="url(#mask-2)"></path>
            <path d="M55.9354729,14.5297869 C56.510557,14.1911514 56.7984075,13.7297682 56.7984075,13.1464598 L56.7984075,11.9169271 L54.2684075,12.4846093 C53.7323888,12.6108523 53.3345383,12.7800673 53.0744449,12.9926654 C52.8141458,13.2056748 52.6842019,13.5011327 52.6842019,13.8794505 C52.6842019,14.2579738 52.8024262,14.5456187 53.0388748,14.7425907 C53.2753234,14.9397682 53.6063514,15.0382542 54.0319589,15.0382542 C54.7254729,15.0382542 55.359772,14.8688336 55.9354729,14.5297869 M61.6928935,14.9436748 L61.4566505,16.9061981 C61.0150056,17.1266093 60.5026318,17.2370206 59.919529,17.2370206 C58.4062579,17.2370206 57.499529,16.6458991 57.2003701,15.4636561 C56.8535103,16.0471701 56.317286,16.4886093 55.5925196,16.7877682 C54.8673421,17.0871327 54.008314,17.2370206 53.0152299,17.2370206 C51.8644449,17.2370206 50.9659402,16.9769271 50.3199215,16.4567402 C49.673286,15.9367589 49.3502766,15.1881421 49.3502766,14.2104785 C49.3502766,12.2876374 50.8871925,11.0420673 53.9610243,10.4745907 L56.7984075,9.93096449 L56.7984075,9.36328224 C56.7984075,8.73309533 56.6211738,8.23244112 56.2662953,7.86193645 C55.911828,7.49184299 55.4187813,7.30617944 54.7885944,7.30617944 C54.0634168,7.30617944 53.4722953,7.46408598 53.0152299,7.77907664 C52.5577533,8.09468411 52.2427626,8.60664673 52.0694355,9.31619813 L49.4921458,8.22853458 C49.7442206,7.20378692 50.3114916,6.40006729 51.1945757,5.81655327 C52.077043,5.23365607 53.2280336,4.94169346 54.6467252,4.94169346 C56.3333234,4.94169346 57.6496224,5.30808598 58.5956224,6.04128224 C59.5412112,6.7742729 60.0141084,7.85823551 60.0141084,9.29234766 L60.0141084,14.1397495 C60.0141084,14.4551514 60.085043,14.6833757 60.2269121,14.8252449 C60.3687813,14.967114 60.5893981,15.0382542 60.8889682,15.0382542 C61.2199963,15.0382542 61.4879028,15.0065907 61.6928935,14.9436748" id="Fill-15" fill="#111111" mask="url(#mask-2)"></path>
            <path d="M41.5738729,14.6952187 C41.3766953,14.7346953 41.1441533,14.7544336 40.8762467,14.7544336 C40.4350131,14.7544336 40.1315364,14.644228 39.966228,14.4234056 C39.8005084,14.2025832 39.7178542,13.8086393 39.7178542,13.2411626 L39.7178542,0.00312523364 L36.4785084,0.881069159 L36.4785084,13.7140598 C36.4785084,14.9435925 36.7423028,15.8383963 37.2705084,16.3976486 C37.7985084,16.9573121 38.6380037,17.2369383 39.7885832,17.2369383 C40.1825271,17.2369383 40.5844897,17.1933495 40.9946766,17.1069944 C41.4044523,17.020228 41.7352748,16.8983028 41.9877607,16.7403963 L42.2714991,14.4941346 C42.0031813,14.588714 41.7708449,14.6561533 41.5738729,14.6952187" id="Fill-16" fill="#111111" mask="url(#mask-2)"></path>
            <path d="M85.4112374,13.2471458 L84.6659103,11.9363981 L85.5010879,9.93172523 L85.8995551,9.76477196 L85.5781907,9.49480935 L85.565443,8.85228598 L86.0276486,8.67505234 C86.2747888,9.43600561 86.4098729,10.2471271 86.4098729,11.0892953 C86.4098729,11.8740991 86.2926766,12.6317626 86.0769944,13.347071 L85.4112374,13.2471458 Z M82.1215178,6.23079065 L81.3120411,5.48546355 L81.131929,3.68495888 C81.8507327,3.93374393 82.5218355,4.28430467 83.1289944,4.71978131 L82.1215178,6.23079065 Z M79.7056299,11.8465477 L78.3434804,11.4094262 L79.1274617,11.2552206 L79.7056299,11.8465477 Z M82.5841346,15.8558935 L80.6051626,17.5776505 L79.9975925,18.7927907 C79.7305084,18.8419308 79.4582841,18.8766785 79.1825645,18.8984729 L79.3972187,15.3675757 L78.3691813,14.056828 L78.7289944,12.9773888 L78.0383589,12.8488841 L77.3668449,12.1806598 L75.9532935,11.6152393 L74.2056299,9.58486542 L74.2056299,8.04280935 L72.7663776,6.47484673 L72.3514617,6.3366785 C73.7845458,4.46462243 76.040471,3.25421121 78.5747888,3.25421121 C78.7694991,3.25421121 78.9619477,3.26387477 79.1531626,3.27785607 L80.3995551,4.53452897 L80.1040972,5.83232336 L78.7931439,5.1126972 L78.5747888,4.07191215 L77.1869383,5.92237944 L78.4205832,7.2331271 L78.8447514,6.78346355 L78.8447514,5.92237944 L80.2967514,6.16643551 L81.247686,8.14561308 L79.1916112,9.26350093 L78.5747888,10.4070897 L78.5747888,10.9982112 L77.0968822,10.6898 L76.8785271,11.486529 L77.8551626,11.2938748 L78.5747888,12.5659682 L79.8084336,12.3476131 L81.3761907,13.1186411 L83.0724523,14.210828 L82.5841346,15.8558935 Z M78.5747888,2.43178131 C73.7933869,2.43178131 69.9172748,6.30789346 69.9172748,11.0892953 C69.9172748,15.8709028 73.7933869,19.747015 78.5747888,19.747015 C83.3561907,19.747015 87.2323028,15.8709028 87.2323028,11.0892953 C87.2323028,6.30789346 83.3561907,2.43178131 78.5747888,2.43178131 L78.5747888,2.43178131 Z" id="Fill-17" fill="#111111" mask="url(#mask-2)"></path>
        </g>
    </g>
</svg>